<svg width="180" height="49" viewBox="0 0 180 49" fill="none" xmlns="http://www.w3.org/2000/svg">
<path fill-rule="evenodd" clip-rule="evenodd" d="M28.8952 7.5488C31.2313 5.78644 33.3626 2.67158 35.9036 0.663318C38.0758 1.8109 40.0841 3.20439 41.8874 4.72083C38.2808 8.73736 34.3462 12.385 30.2887 16.4425C28.6903 18.0819 27.0509 21.2788 23.6491 20.1722C22.3786 19.7623 20.6982 17.5901 19.5916 16.4835C15.739 12.6309 11.5585 8.49145 8.11578 4.76182C9.87814 3.1634 11.9274 1.85188 14.0996 0.704303C16.6407 2.91749 18.7309 5.58152 21.3539 7.71274C21.5999 5.86841 21.0261 4.39295 21.3539 2.75355C22.0507 -1.01707 28.1984 -0.935098 28.8542 3.12242C29.1001 4.47492 28.7312 5.58152 28.8952 7.5488Z" fill="#C60352"/>
<path fill-rule="evenodd" clip-rule="evenodd" d="M98.0369 35.8285C99.3484 37.4269 101.111 38.6154 102.627 40.0499C101.152 41.6893 99.4714 43.0828 97.9139 44.6402C96.1516 43.2877 94.6351 41.7303 92.9548 40.2958C87.8726 43.7386 79.0198 43.4927 73.9787 41.5664C68.6097 39.5171 64.88 35.0088 63.2816 29.3528C59.47 15.7458 66.3965 2.87651 80.0855 1.85188C93.4876 0.868245 101.726 8.77835 102.381 20.8279C102.668 26.8118 101.111 32.0988 98.0369 35.8285ZM83.4872 8.98328C75.1263 8.3685 71.5606 14.2703 71.2737 21.3198C70.9868 28.2052 73.8967 35.1317 80.7002 35.8285C83.1183 36.0744 85.0856 35.6645 86.807 34.9268C86.5611 34.353 85.7004 33.7382 84.8807 33.0005C84.4709 32.6316 82.7085 31.4431 82.7085 30.9512C82.7085 30.6234 83.5282 30.0906 83.8561 29.8037C84.3069 29.3938 84.8397 29.0249 85.1266 28.779C85.5774 28.3692 86.889 26.4839 87.4218 26.4839C87.5447 26.4839 88.1185 27.3036 88.3234 27.5085C89.553 28.6151 90.3727 29.1889 91.5203 30.1725C95.4548 21.3198 92.9138 9.63904 83.4872 8.98328Z" fill="white"/>
<path fill-rule="evenodd" clip-rule="evenodd" d="M114.841 41.7713V14.8031C119.554 22.0575 124.718 30.8283 129.472 38.6154C130.046 39.5581 130.866 41.2385 131.522 41.7713H140.415V2.99945H132.136C131.85 11.6063 132.095 20.7869 132.013 29.5987C126.481 20.7869 121.316 11.6063 115.578 2.99945H106.685C106.521 3.04044 106.439 3.16339 106.439 3.36832V41.7713H114.841Z" fill="white"/>
<path fill-rule="evenodd" clip-rule="evenodd" d="M144.637 2.99948C156.4 3.77819 172.835 0.253484 176.974 8.61443C179.187 13.0818 177.384 19.8443 172.917 20.9509C175.212 22.0575 177.056 23.2051 178.122 25.2953C179.761 28.4512 179.31 33.0005 177.999 35.6235C173.572 44.3943 157.055 41.4844 144.514 41.9762C144.514 29.1069 144.514 16.2376 144.514 3.40933C144.473 3.2044 144.473 2.99948 144.637 2.99948ZM153.039 10.3768C153.039 12.9998 153.039 15.6229 153.039 18.2869C157.465 17.6721 164.597 19.4345 167.67 17.3852C168.941 16.5245 169.761 14.3933 168.941 12.426C167.22 8.36852 158.613 10.6227 153.162 10.0079C152.998 10.0079 152.998 10.1719 153.039 10.3768ZM153.039 25.2543C153.039 28.4922 153.039 31.689 153.039 34.9268C158.244 34.435 166.564 36.2383 169.064 33.0005C169.925 31.8939 170.498 29.4348 169.72 27.5085C167.875 23.1641 159.064 25.4183 153.162 24.8445C152.998 24.8855 152.998 25.0904 153.039 25.2543Z" fill="white"/>
<path fill-rule="evenodd" clip-rule="evenodd" d="M2.54184 34.1891C4.67306 31.607 7.41906 29.6397 9.67323 27.1806C6.55837 27.1806 3.4845 27.1806 0.369637 27.1806C-0.122183 24.9675 -0.0811976 22.0575 0.246682 19.6804C3.36154 19.6804 6.43542 19.6804 9.55028 19.6804C7.66497 17.3033 4.75503 14.8851 2.54184 12.426C3.56647 10.0489 5.00094 8.12262 6.59936 6.31927C10.0831 9.76202 14.2636 13.8605 18.3211 17.918C20.0834 19.6804 22.7475 21.2788 21.8868 24.3937C21.5179 25.8281 19.5096 27.4266 18.3211 28.6151C15.0423 31.8939 12.1323 34.8039 8.64861 38.2876C8.27974 38.6564 6.84527 40.2139 6.72231 40.2139C6.14852 40.2139 4.837 38.0007 4.42715 37.4269C3.64844 36.1973 3.03366 35.1727 2.54184 34.1891Z" fill="white"/>
<path fill-rule="evenodd" clip-rule="evenodd" d="M47.4614 12.2621C45.2892 14.9261 42.6252 17.0983 40.33 19.6394C43.4449 19.6394 46.5187 19.6394 49.6336 19.6394C50.1664 21.9755 50.0025 24.7625 49.6336 27.1397C46.5597 27.1397 43.5268 27.1397 40.453 27.1397C42.1743 29.4348 45.6581 31.771 47.3384 34.1481C46.3958 36.4842 44.8384 38.2876 43.4039 40.1319C39.7562 36.6892 35.8217 32.5497 31.9281 28.6561C30.2887 27.0167 26.8459 25.0494 28.1165 21.7706C28.5673 20.5821 30.4936 18.9836 31.6822 17.8361C35.5348 13.9835 39.7972 9.92596 43.2809 6.2373C45.0433 7.91769 46.2728 10.0899 47.4614 12.2621Z" fill="white"/>
<path fill-rule="evenodd" clip-rule="evenodd" d="M41.8875 41.6893C40.0022 43.1238 38.1988 44.6402 35.9037 45.6239C33.2806 43.5746 31.3953 40.7876 28.8952 38.6154C28.8952 41.7303 28.8952 44.8042 28.8952 47.919C26.5181 48.2059 23.7311 48.2879 21.395 47.919C21.395 44.8452 21.395 41.8123 21.395 38.7384C19.0588 40.5007 16.4768 43.8615 14.1406 45.6239C11.8045 44.6402 10.0011 43.1648 8.1568 41.6893C11.4766 37.9597 15.5751 34.1481 19.3457 30.3774C20.9851 28.738 23.1573 25.0084 26.4771 26.4429C27.7476 26.9757 29.387 28.943 30.5346 30.1315C34.4282 33.9841 38.2398 37.7548 41.8875 41.6893Z" fill="white"/>
</svg>
