<svg width="227" height="61" viewBox="0 0 227 61" fill="none" xmlns="http://www.w3.org/2000/svg">
<path fill-rule="evenodd" clip-rule="evenodd" d="M36.5789 9.55614C39.5362 7.32515 42.2342 3.382 45.451 0.839704C48.2008 2.29244 50.7431 4.05648 53.0259 5.97617C48.4602 11.0608 43.4794 15.6784 38.3429 20.8149C36.3195 22.8902 34.2441 26.9371 29.9378 25.5363C28.3294 25.0174 26.2022 22.2676 24.8013 20.8667C19.9243 15.9897 14.6321 10.7495 10.2739 6.02806C12.5049 4.0046 15.0991 2.34433 17.8489 0.891587C21.0657 3.6933 23.7118 7.06573 27.0323 9.76367C27.3436 7.42891 26.6172 5.56111 27.0323 3.48576C27.9143 -1.28752 35.6969 -1.18375 36.527 3.95272C36.8383 5.66487 36.3713 7.06573 36.5789 9.55614Z" fill="#C60352"/>
<path fill-rule="evenodd" clip-rule="evenodd" d="M124.106 45.3558C125.767 47.3793 127.998 48.8839 129.917 50.6998C128.05 52.7752 125.922 54.5392 123.951 56.5108C121.72 54.7986 119.8 52.8271 117.673 51.0111C111.239 55.3694 100.032 55.0581 93.6508 52.6195C86.854 50.0253 82.1326 44.3182 80.1092 37.1582C75.284 19.9329 84.0523 3.64147 101.381 2.34438C118.347 1.09918 128.776 11.1127 129.606 26.3665C129.969 33.9415 127.998 40.6344 124.106 45.3558ZM105.688 11.3721C95.1035 10.5939 90.5896 18.0651 90.2264 26.9891C89.8633 35.7055 93.547 44.4738 102.16 45.3558C105.221 45.6671 107.711 45.1483 109.89 44.2144C109.579 43.488 108.489 42.7098 107.452 41.7759C106.933 41.3089 104.702 39.8043 104.702 39.1817C104.702 38.7666 105.74 38.0921 106.155 37.729C106.725 37.2101 107.4 36.7432 107.763 36.4319C108.334 35.913 109.994 33.5264 110.669 33.5264C110.824 33.5264 111.551 34.5641 111.81 34.8235C113.367 36.2243 114.404 36.9507 115.857 38.1959C120.838 26.9891 117.621 12.2023 105.688 11.3721Z" fill="#092A5B"/>
<path fill-rule="evenodd" clip-rule="evenodd" d="M145.379 52.8789V18.7395C151.345 27.9229 157.883 39.026 163.901 48.8839C164.627 50.0772 165.665 52.2044 166.495 52.8789H177.754V3.79709H167.274C166.91 14.6926 167.222 26.3145 167.118 37.4695C160.114 26.3145 153.576 14.6926 146.313 3.79709H135.054C134.846 3.84897 134.743 4.00462 134.743 4.26404V52.8789H145.379Z" fill="#092A5B"/>
<path fill-rule="evenodd" clip-rule="evenodd" d="M183.098 3.79706C197.989 4.78285 218.794 0.320868 224.034 10.9051C226.836 16.5604 224.553 25.1212 218.898 26.5221C221.803 27.9229 224.138 29.3757 225.487 32.0217C227.562 36.0167 226.991 41.7758 225.331 45.0964C219.728 56.1994 198.819 52.5157 182.942 53.1383C182.942 36.8469 182.942 20.5554 182.942 4.3159C182.89 4.05648 182.89 3.79706 183.098 3.79706ZM193.734 13.1361C193.734 16.4566 193.734 19.7772 193.734 23.1496C199.338 22.3714 208.365 24.6024 212.257 22.0082C213.865 20.9186 214.903 18.2207 213.865 15.7303C211.686 10.5938 200.79 13.4474 193.89 12.6692C193.682 12.6692 193.682 12.8767 193.734 13.1361ZM193.734 31.9698C193.734 36.0686 193.734 40.1155 193.734 44.2143C200.323 43.5917 210.856 45.8746 214.021 41.7758C215.11 40.375 215.837 37.2619 214.851 34.8234C212.516 29.3238 201.361 32.1774 193.89 31.451C193.682 31.5029 193.682 31.7623 193.734 31.9698Z" fill="#092A5B"/>
<path fill-rule="evenodd" clip-rule="evenodd" d="M3.21776 43.2805C5.9157 40.0118 9.3919 37.5214 12.2455 34.4084C8.30234 34.4084 4.41108 34.4084 0.46793 34.4084C-0.154673 31.6067 -0.102789 27.9229 0.312279 24.9137C4.25543 24.9137 8.14669 24.9137 12.0898 24.9137C9.7032 21.9045 6.01947 18.8433 3.21776 15.7303C4.51485 12.7211 6.33077 10.2825 8.35423 7.99966C12.7643 12.3579 18.0564 17.5462 23.1929 22.6827C25.4239 24.9137 28.7963 26.9372 27.7068 30.8803C27.2398 32.6962 24.6975 34.7197 23.1929 36.2243C19.0422 40.375 15.3585 44.0587 10.9484 48.4688C10.4815 48.9358 8.66553 50.9074 8.50988 50.9074C7.78351 50.9074 6.12324 48.1056 5.6044 47.3793C4.61861 45.8228 3.84036 44.5257 3.21776 43.2805Z" fill="#092A5B"/>
<path fill-rule="evenodd" clip-rule="evenodd" d="M60.0821 15.5228C57.3323 18.8952 53.9599 21.645 51.0544 24.8618C54.9975 24.8618 58.8888 24.8618 62.832 24.8618C63.5064 27.8192 63.2989 31.3472 62.832 34.3565C58.9407 34.3565 55.1013 34.3565 51.21 34.3565C53.3892 37.262 57.7993 40.2193 59.9265 43.2286C58.7332 46.1859 56.7616 48.4688 54.9457 50.8036C50.328 46.4453 45.3472 41.2051 40.4183 36.2762C38.3429 34.2008 33.9847 31.7104 35.5931 27.5597C36.1638 26.0551 38.6023 24.0317 40.107 22.5789C44.984 17.7019 50.3799 12.5654 54.79 7.89587C57.021 10.0231 58.5775 12.7729 60.0821 15.5228Z" fill="#092A5B"/>
<path fill-rule="evenodd" clip-rule="evenodd" d="M53.026 52.7752C50.6393 54.5911 48.3564 56.5108 45.451 57.756C42.1304 55.1618 39.7438 51.6337 36.5789 48.8839C36.5789 52.827 36.5789 56.7183 36.5789 60.6615C33.5696 61.0246 30.0415 61.1284 27.0842 60.6615C27.0842 56.7702 27.0842 52.9308 27.0842 49.0395C24.1268 51.2705 20.8582 55.525 17.9008 57.756C14.9434 56.5108 12.6606 54.643 10.3258 52.7752C14.5284 48.0538 19.7167 43.2286 24.49 38.4553C26.5653 36.38 29.3152 31.6586 33.5177 33.4745C35.1261 34.149 37.2015 36.6394 38.6542 38.144C43.5831 43.0211 48.4083 47.7943 53.026 52.7752Z" fill="#092A5B"/>
</svg>
